# AST/ASF file generated using VICON BodyLanguage
# -----------------------------------------------
:version 1.10
:name VICON
:units
  mass 1.0
  length 0.45
  angle deg
:documentation
   .ast/.asf automatically generated from VICON data using
   VICON BodyBuilder and BodyLanguage model FoxedUp or BRILLIANT.MOD
:root
   order TX TY TZ RX RY RZ
   axis XYZ
   position 0 0 0  
   orientation 0 0 0 
:bonedata
  begin
     id 1 
     name lhipjoint
     direction 0.693937 -0.600361 0.397515 
     length 2.37164 
     axis 0 0 0  XYZ
  end
  begin
     id 2 
     name lfemur
     direction 0.34202 -0.939693 0  
     length 6.18497  
     axis 0 0 20  XYZ
    dof rx ry rz
    limits (-160.0 20.0)
           (-70.0 70.0)
           (-60.0 70.0)
  end
  begin
     id 3 
     name ltibia
     direction 0.34202 -0.939693 0   
     length 6.91601   
     axis 0 0 20   XYZ
    dof rx
    limits (-10.0 170.0)
  end
  begin
     id 4 
     name lfoot
     direction 0.0978718 -0.2689 0.958182   
     length 1.81453   
     axis -90 7.62852e-016 20   XYZ
    dof rx rz
    limits (-45.0 90.0)
           (-70.0 20.0)
  end
  begin
     id 5 
     name ltoes
     direction 1.53569e-011 -4.21951e-011 1   
     length 0.912052   
     axis -90 7.62852e-016 20   XYZ
    dof rx
    limits (-90.0 20.0)
  end
  begin
     id 6 
     name rhipjoint
     direction -0.643996 -0.637876 0.422354   
     length 2.23216  
     axis 0 0 0  XYZ 
  end
  begin
     id 7 
     name rfemur
     direction -0.34202 -0.939693 0   
     length 6.15404   
     axis 0 0 -20   XYZ
    dof rx ry rz
    limits (-160.0 20.0)
           (-70.0 70.0)
           (-70.0 60.0)
  end
  begin
     id 8 
     name rtibia
     direction -0.34202 -0.939693 0   
     length 6.86744   
     axis 0 0 -20   XYZ
    dof rx
    limits (-10.0 170.0)
 end
 begin
     id 9 
     name rfoot
     direction -0.118701 -0.326127 0.937844   
     length 1.9243  
     axis -90 -7.62852e-016 -20   XYZ
    dof rx rz
    limits (-45.0 90.0)
           (-20.0 70.0)
  end
  begin
     id 10 
     name rtoes
     direction -1.5356e-011 -4.2181e-011 1   
     length 0.958865   
     axis -90 -7.62852e-016 -20   XYZ
    dof rx
    limits (-90.0 20.0)
  end
  begin
     id 11 
     name lowerback
     direction 0.0310826 0.968686 -0.246334   
     length 2.00021   
     axis 0 0 0   XYZ
    dof rx ry rz
    limits (-20.0 45.0)
           (-30.0 30.0)
           (-30.0 30.0)
  end
  begin
     id 12 
     name upperback
     direction -0.0152834 0.999474 -0.0286152   
     length 2.03728   
     axis 0 0 0   XYZ
    dof rx ry rz
    limits (-20.0 45.0)
           (-30.0 30.0)
           (-30.0 30.0)
  end
  begin
     id 13 
     name thorax
     direction -0.0323701 0.996236 0.0804149   
     length 2.16   
     axis 0 0 0   XYZ
    dof rx ry rz
    limits (-20.0 45.0)
           (-30.0 30.0)
           (-30.0 30.0)
  end
  begin
     id 14 
     name lowerneck
     direction 0.0307935 0.982251 0.185027   
     length 1.43558   
     axis 0 0 0   XYZ
    dof rx ry rz
    limits (-20.0 45.0)
           (-30.0 30.0)
           (-30.0 30.0)
  end
  begin
     id 15 
     name upperneck
     direction -0.0927153 0.994775 0.0427454   
     length 1.44603   
     axis 0 0 0   XYZ
    dof rx ry rz
    limits (-20.0 45.0)
           (-30.0 30.0)
           (-30.0 30.0)
  end
  begin
     id 16
     name head
     direction -0.0341265 0.999406 -0.00472033  
     length 1.45931  
     axis 0 0 0   XYZ
    dof rx ry rz
    limits (-20.0 45.0)
           (-30.0 30.0)
           (-30.0 30.0)
  end
  begin
     id 17 
     name lclavicle
     direction 0.820755 0.555306 -0.134151  
     length 2.66075  
     axis 0 0 0   XYZ
    dof ry rz
    limits (-20.0 10.0)
           (0.0 20.0)
  end
  begin
     id 18 
     name lhumerus
     direction 1 -4.48971e-011 5.24853e-027   
     length 5.0546   
     axis -180 -30 -90   XYZ
    dof rx ry rz
    limits (-60.0 90.0)
           (-90.0 90.0)
           (-90.0 90.0)
  end
  begin
     id 19
     name lradius
     direction 1 -4.48971e-011 2.76575e-028   
     length 3.39013   
     axis -180 -30 -90   XYZ
    dof rx
    limits (-10.0 170.0)
  end
  begin
     id 20
     name lwrist
     direction 1 -4.48939e-011 -2.27826e-027   
     length 1.69507   
     axis 2.17013e-015 90 90   XYZ
    dof ry
    limits (-180.0 0.0)
 end
  begin
     id 21 
     name lhand
     direction 1 -4.49009e-011 -4.55652e-027   
     length 0.572425   
     axis 2.90745e-015 90 90   XYZ
    dof rx rz
    limits (-90.0 90.0)
           (-45.0 45.0)
  end
  begin
     id 22 
     name lfingers
     direction 1 -4.48955e-011 -9.11303e-027   
     length 0.461504   
     axis 5.81489e-015 90 90   XYZ
    dof rx
    limits (0.0 90.0)
  end
  begin
     id 23
     name lthumb
     direction 0.707107 -6.34929e-011 0.707107   
     length 0.66263   
     axis -90 45 2.85299e-015   XYZ
    dof rx rz
    limits (-45.0 45.0)
           (-45.0 45.0)
  end
  begin
     id 24 
     name rclavicle
     direction -0.754477 0.632921 -0.173712   
     length 2.73081  
     axis 0 0 0   XYZ 
    dof ry rz
    limits (-10.0 20.0)
           (-20.0 0.0)
  end
  begin
     id 25 
     name rhumerus
     direction -1 -4.48969e-011 5.1496e-027  
     length 5.0701   
     axis -180 30 90   XYZ
    dof rx ry rz
    limits (-90.0 60.0)
           (-90.0 90.0)
           (-90.0 90.0)
  end
  begin
     id 26 
     name rradius
     direction -1 -4.48967e-011 -7.15624e-028   
     length 3.14957   
     axis -180 30 90   XYZ
    dof rx
    limits (-10.0 170.0)
  end
  begin
     id 27 
     name rwrist
     direction -1 -4.48938e-011 -2.27826e-027   
     length 1.57479   
     axis 2.17013e-015 -90 -90   XYZ
    dof ry
    limits (-180.0 0.0)
  end
  begin
     id 28
     name rhand
     direction -1 -4.49008e-011 -4.55652e-027   
     length 0.718191   
     axis 2.90745e-015 -90 -90   XYZ
    dof rx rz
    limits (-90.0 90.0)
           (-45.0 45.0)
  end
  begin
     id 29
     name rfingers
     direction -1 -4.48953e-011 -9.11303e-027   
     length 0.579024   
     axis 5.81489e-015 -90 -90   XYZ
    dof rx
    limits (0.0 90.0)
  end
  begin
     id 30
     name rthumb
     direction -0.707107 -6.34937e-011 0.707107   
     length 0.831366   
     axis -90 -45 -2.85299e-015   XYZ
    dof rx rz
    limits (-45.0 45.0)
           (-45.0 45.0)
  end
:hierarchy
  begin
    root lhipjoint rhipjoint lowerback
    lhipjoint lfemur
    lfemur ltibia
    ltibia lfoot
    lfoot ltoes
    rhipjoint rfemur
    rfemur rtibia
    rtibia rfoot
    rfoot rtoes
    lowerback upperback
    upperback thorax
    thorax lowerneck lclavicle rclavicle
    lowerneck upperneck
    upperneck head
    lclavicle lhumerus
    lhumerus lradius
    lradius lwrist
    lwrist lhand lthumb
    lhand lfingers
    rclavicle rhumerus
    rhumerus rradius
    rradius rwrist
    rwrist rhand rthumb
    rhand rfingers
  end

#!OML:ASF H:\Male1\Project 1\Capture day 1\Session 1\Male1.ASF
:FULLY-SPECIFIED
:DEGREES
72
root -22.8071 14.4503 -6.6337 8.34289 70.0238 3.13638
lowerback 9.45815 -1.5908 -3.56871
upperback 5.44257 -2.21526 -3.49326
thorax 0.355814 -1.052 -1.41083
lowerneck -2.11503 6.42444 10.1209
upperneck -1.57332 8.38239 -11.0321
head 0.790015 4.14436 -4.77542
rclavicle 6.20208e-014 7.95139e-015
rhumerus -21.7315 -22.5342 -6.94275
rradius 36.59
rwrist -28.0509
rhand -31.9097 -11.7419
rfingers 7.12502
rthumb -5.16156 -41.6591
lclavicle 6.20208e-014 7.95139e-015
lhumerus -20.4437 26.681 19.4898
lradius 27.3217
lwrist 3.21999
lhand -29.5902 22.3911
lfingers 7.12502
lthumb -2.92166 52.3508
rfemur -17.6016 -1.89232 29.3481
rtibia 53.616
rfoot -25.589 -18.3842
rtoes -30.9042
lfemur -8.44989 0.983403 -17.7607
ltibia 44.305
lfoot -32.1546 26.3568
ltoes -14.7815
73
root -22.6851 14.3891 -6.49322 5.62307 69.4346 0.230253
lowerback 9.86601 -1.46634 -2.67153
upperback 5.57461 -1.99394 -3.32545
thorax 0.240738 -0.924561 -1.7504
lowerneck -1.95477 6.4141 10.1588
upperneck -1.90811 8.36389 -11.2919
head 0.678237 4.14235 -4.87288
rclavicle -6.16232e-014 -3.81667e-014
rhumerus -21.2709 -22.9454 -6.69584
rradius 36.4207
rwrist -27.8788
rhand -31.7306 -11.8659
rfingers 7.12502
rthumb -4.98859 -41.7872
lclavicle -6.16232e-014 -3.81667e-014
lhumerus -20.4778 25.854 18.8853
lradius 27.4773
lwrist 3.73178
lhand -28.6168 22.7426
lfingers 7.12502
lthumb -1.98167 52.7132
rfemur -15.5694 -1.91159 30.7757
rtibia 51.5403
rfoot -26.6984 -18.3088
rtoes -30.2756
lfemur -11.2453 1.80777 -16.2764
ltibia 50.0881
lfoot -29.5569 26.0581
ltoes -14.3993
74
root -22.5587 14.3319 -6.35539 3.31765 68.8202 -2.29774
lowerback 10.3634 -1.33828 -1.78587
upperback 5.65995 -1.76612 -3.19105
thorax 0.0352284 -0.793133 -2.12033
lowerneck -1.89386 6.4037 10.1213
upperneck -2.17064 8.34201 -11.5301
head 0.599355 4.13658 -4.94724
rclavicle -1.70955e-014 -4.6118e-014
rhumerus -20.733 -23.4876 -6.37241
rradius 36.0089
rwrist -27.6563
rhand -31.5459 -12.0142
rfingers 7.12502
rthumb -4.81024 -41.9396
lclavicle -1.70955e-014 -4.6118e-014
lhumerus -20.5451 24.8022 18.3143
lradius 27.6679
lwrist 4.11386
lhand -27.533 22.855
lfingers 7.12502
lthumb -0.93486 52.8327
rfemur -13.5194 -1.9281 32.0806
rtibia 49.3232
rfoot -27.6856 -18.1846
rtoes -29.4947
lfemur -14.3467 2.26729 -15.0058
ltibia 55.7325
lfoot -26.4099 25.3111
ltoes -15.1688
75
root -22.4231 14.2848 -6.21738 1.63692 68.1852 -4.26239
lowerback 10.8702 -1.20396 -0.996789
upperback 5.69354 -1.53172 -3.11857
thorax -0.21998 -0.660686 -2.50508
lowerneck -1.90184 6.39523 10.0423
upperneck -2.42205 8.31794 -11.7688
head 0.533132 4.12878 -5.0127
rclavicle -1.31198e-014 9.54166e-015
rhumerus -20.1286 -24.2175 -5.96031
rradius 35.3902
rwrist -27.4527
rhand -31.4027 -12.2013
rfingers 7.12502
rthumb -4.67203 -42.1298
lclavicle -1.31198e-014 9.54166e-015
lhumerus -20.646 23.6285 17.7234
lradius 27.8727
lwrist 4.33259
lhand -26.4612 22.6486
lfingers 7.12502
lthumb 0.100337 52.6283
rfemur -11.4585 -1.80783 33.2
rtibia 46.9453
rfoot -28.5556 -18.0508
rtoes -28.4881
lfemur -17.6885 2.43695 -14.0617
ltibia 60.86
lfoot -23.3699 23.8047
ltoes -17.063
76
root -22.274 14.2531 -6.07504 0.639656 67.5253 -5.62503
lowerback 11.3072 -1.05732 -0.353518
upperback 5.67293 -1.28839 -3.12838
thorax -0.484255 -0.527739 -2.89978
lowerneck -1.94219 6.39741 9.92706
upperneck -2.69987 8.3037 -11.9658
head 0.462107 4.12609 -5.05877
rclavicle -1.11319e-014 -6.36111e-015
rhumerus -19.4803 -25.1083 -5.50012
rradius 34.6383
rwrist -27.3952
rhand -31.3933 -12.446
rfingers 7.12502
rthumb -4.66291 -42.3747
lclavicle -1.11319e-014 -6.36111e-015
lhumerus -20.7813 22.391 17.0623
lradius 28.0755
lwrist 4.39819
lhand -25.5148 22.1831
lfingers 7.12502
lthumb 1.01435 52.1604
rfemur -9.36039 -1.40874 34.1313
rtibia 44.3575
rfoot -29.242 -18.0399
rtoes -27.4515
lfemur -21.1692 2.43337 -13.5085
ltibia 65.1353
lfoot -21.1395 21.6761
ltoes -19.3394
77
root -22.1075 14.2435 -5.92341 0.305998 66.8538 -6.41062
lowerback 11.6188 -0.898612 0.116675
upperback 5.60233 -1.04276 -3.23848
thorax -0.72455 -0.397838 -3.30696
lowerneck -1.96024 6.40835 9.79346
upperneck -3.0369 8.29843 -12.1005
head 0.367405 4.1297 -5.08478
rclavicle -4.05521e-014 -1.59028e-014
rhumerus -18.8356 -26.1046 -5.04927
rradius 33.8359
rwrist -27.5406
rhand -31.5383 -12.74
rfingers 7.12502
rthumb -4.80294 -42.6656
lclavicle -4.05521e-014 -1.59028e-014
lhumerus -20.9341 21.1367 16.2988
lradius 28.2656
lwrist 4.3613
lhand -24.7781 21.6005
lfingers 7.12502
lthumb 1.72584 51.5732
rfemur -7.19254 -0.665913 34.8895
rtibia 41.5161
rfoot -29.6555 -18.2733
rtoes -26.5816
lfemur -24.6636 2.32993 -13.3621
ltibia 68.3012
lfoot -19.9408 19.3801
ltoes -21.4505
78
root -21.9227 14.2564 -5.7597 0.560642 66.1873 -6.69724
lowerback 11.7538 -0.732513 0.420715
upperback 5.49253 -0.803609 -3.46639
thorax -0.904195 -0.27413 -3.74686
lowerneck -1.94964 6.41623 9.66631
upperneck -3.4166 8.28738 -12.1345
head 0.250248 4.13153 -5.08357
rclavicle 2.38542e-014 -1.11319e-014
rhumerus -18.2561 -27.1584 -4.67201
rradius 33.0513
rwrist -27.8616
rhand -31.7877 -13.039
rfingers 7.12502
rthumb -5.04373 -42.9589
lclavicle 2.38542e-014 -1.11319e-014
lhumerus -21.0579 19.9562 15.4129
lradius 28.4168
lwrist 4.27719
lhand -24.3006 21.0868
lfingers 7.12502
lthumb 2.18703 51.0553
rfemur -4.96304 0.408705 35.4949
rtibia 38.4251
rfoot -29.6785 -18.7182
rtoes -25.7182
lfemur -28.0217 2.19481 -13.6014
ltibia 70.1965
lfoot -19.6652 17.2941
ltoes -23.0877
79
root -21.7198 14.29 -5.58306 1.17471 65.5294 -6.67356
lowerback 11.7387 -0.565585 0.602124
upperback 5.3628 -0.576237 -3.79881
thorax -1.01916 -0.157432 -4.22801
lowerneck -1.95342 6.43367 9.52338
upperneck -3.75414 8.29112 -12.0348
head 0.141959 4.13906 -5.03757
rclavicle -7.31528e-014 -1.59028e-015
rhumerus -17.7778 -28.2142 -4.40822
rradius 32.3226
rwrist -28.2567
rhand -32.0616 -13.2837
rfingers 7.12502
rthumb -5.30823 -43.1972
lclavicle -7.31528e-014 -1.59028e-015
lhumerus -21.128 18.9536 14.4087
lradius 28.5045
lwrist 4.21704
lhand -24.0844 20.8008
lfingers 7.12502
lthumb 2.39587 50.7671
rfemur -2.68223 1.71959 35.9944
rtibia 35.1718
rfoot -29.1038 -19.3759
rtoes -25.1248
lfemur -31.0512 2.09183 -14.1324
ltibia 70.7851
lfoot -19.9813 15.5563
ltoes -24.5691
80
root -21.4982 14.3456 -5.39278 1.96732 64.8675 -6.48291
lowerback 11.599 -0.400767 0.699276
upperback 5.23863 -0.358967 -4.21664
thorax -1.057 -0.0449971 -4.75135
lowerneck -2.00473 6.45485 9.35104
upperneck -4.02427 8.30254 -11.7876
head 0.0531607 4.14719 -4.93915
rclavicle 2.38542e-015 -3.18055e-015
rhumerus -17.4177 -29.2014 -4.27094
rradius 31.6591
rwrist -28.5931
rhand -32.3023 -13.4274
rfingers 7.12502
rthumb -5.54065 -43.335
lclavicle 2.38542e-015 -3.18055e-015
lhumerus -21.134 18.2499 13.3057
lradius 28.5139
lwrist 4.23879
lhand -24.0742 20.8298
lfingers 7.12502
lthumb 2.40567 50.7959
rfemur -0.41206 3.10258 36.3991
rtibia 31.9525
rfoot -27.806 -20.1068
rtoes -24.93
lfemur -33.604 2.04934 -14.8597
ltibia 70.1085
lfoot -20.642 14.0803
ltoes -26.0604
81
root -21.2614 14.416 -5.19206 2.76713 64.2121 -6.21125
lowerback 11.4397 -0.252769 0.721017
upperback 5.15019 -0.167833 -4.68218
thorax -1.0448 0.0562086 -5.28015
lowerneck -2.11209 6.48902 9.1276
upperneck -4.244 8.3336 -11.4337
head -0.0174687 4.16262 -4.79692
rclavicle -1.03368e-014 3.49861e-014
rhumerus -17.1392 -30.0207 -4.25281
rradius 31.0512
rwrist -28.7731
rhand -32.5057 -13.4577
rfingers 7.12502
rthumb -5.73694 -43.36
lclavicle -1.03368e-014 3.49861e-014
lhumerus -21.1135 17.9762 12.1391
lradius 28.4355
lwrist 4.33435
lhand -24.2127 21.1653
lfingers 7.12502
lthumb 2.27196 51.133
rfemur 1.71827 4.27438 36.6639
rtibia 29.1042
rfoot -25.7368 -20.6077
rtoes -25.0562
lfemur -35.4644 2.0534 -15.7075
ltibia 68.3266
lfoot -21.5973 12.4549
ltoes -27.9274
82
root -21.0104 14.4966 -4.98294 3.44752 63.5321 -5.94079
lowerback 11.2876 -0.124197 0.672722
upperback 5.12845 -0.00283045 -5.15054
thorax -0.965886 0.147122 -5.76994
lowerneck -2.26155 6.5542 8.83375
upperneck -4.44105 8.40838 -11.0314
head -0.0759922 4.19929 -4.62595
rclavicle 3.4191e-014 -6.99722e-014
rhumerus -16.871 -30.6097 -4.34801
rradius 30.4933
rwrist -28.7492
rhand -32.7087 -13.3722
rfingers 7.12502
rthumb -5.93301 -43.2691
lclavicle 3.4191e-014 -6.99722e-014
lhumerus -21.1291 18.2492 10.9441
lradius 28.2641
lwrist 4.4603
lhand -24.4747 21.702
lfingers 7.12502
lthumb 2.01892 51.6721
rfemur 3.46201 4.99597 36.7356
rtibia 27.0981
rfoot -22.8656 -20.6573
rtoes -25.697
lfemur -36.5287 2.05415 -16.5916
ltibia 65.704
lfoot -22.6323 10.6526
ltoes -30.3033
83
root -20.7483 14.581 -4.76818 4.0315 62.8059 -5.61803
lowerback 11.1814 -0.00964253 0.499033
upperback 5.17266 0.137999 -5.58921
thorax -0.843602 0.227294 -6.15449
lowerneck -2.39698 6.64923 8.5106
upperneck -4.67466 8.52417 -10.693
head -0.14219 4.25873 -4.47016
rclavicle 4.85035e-014 1.90833e-014
rhumerus -16.5686 -30.8921 -4.52254
rradius 30.0064
rwrist -28.5459
rhand -32.9414 -13.1772
rfingers 7.12502
rthumb -6.15766 -43.0677
lclavicle 4.85035e-014 1.90833e-014
lhumerus -21.2405 19.0791 9.759
lradius 28.0084
lwrist 4.58762
lhand -24.8371 22.3575
lfingers 7.12502
lthumb 1.66891 52.3307
rfemur 4.50794 5.08619 36.5042
rtibia 26.5032
rfoot -19.5027 -19.9623
rtoes -26.4009
lfemur -36.7905 1.9653 -17.4707
ltibia 62.6224
lfoot -23.5576 8.78584
ltoes -32.2255
